<svg width="12" height="13" viewBox="0 0 12 13" fill="none" xmlns="http://www.w3.org/2000/svg">
<path d="M0.666626 6.63482V10.2001C0.666626 10.9468 0.666626 11.3205 0.811951 11.6057C0.939782 11.8566 1.14361 12.0604 1.39449 12.1882C1.67943 12.3334 2.05262 12.3334 2.7979 12.3334H9.20202C9.9473 12.3334 10.32 12.3334 10.6049 12.1882C10.8558 12.0604 11.0603 11.8566 11.1881 11.6057C11.3333 11.3208 11.3333 10.9477 11.3333 10.2024V6.63482C11.3333 6.27859 11.333 6.10038 11.2897 5.93462C11.2513 5.78772 11.1883 5.64871 11.103 5.52309C11.0068 5.38134 10.873 5.26379 10.6049 5.02922L7.40491 2.22922C6.90717 1.79369 6.6583 1.57604 6.37821 1.49321C6.13142 1.42023 5.86837 1.42023 5.62157 1.49321C5.3417 1.57598 5.09319 1.79343 4.5962 2.22829L1.39514 5.02922C1.12705 5.2638 0.99332 5.38134 0.897095 5.52309C0.811821 5.64871 0.748325 5.78772 0.70994 5.93462C0.666626 6.10038 0.666626 6.27859 0.666626 6.63482Z" stroke="#848484" stroke-width="1.33333" stroke-linecap="round" stroke-linejoin="round"/>
</svg>
